%TF.GenerationSoftware,KiCad,Pcbnew,(5.99.0-7653-g7b9c21e290)*%
%TF.CreationDate,2021-01-21T05:12:34-07:00*%
%TF.ProjectId,buttonNRF24Board,62757474-6f6e-44e5-9246-3234426f6172,rev?*%
%TF.SameCoordinates,Original*%
%TF.FileFunction,Copper,L1,Top*%
%TF.FilePolarity,Positive*%
%FSLAX46Y46*%
G04 Gerber Fmt 4.6, Leading zero omitted, Abs format (unit mm)*
G04 Created by KiCad (PCBNEW (5.99.0-7653-g7b9c21e290)) date 2021-01-21 05:12:34*
%MOMM*%
%LPD*%
G01*
G04 APERTURE LIST*
G04 Aperture macros list*
%AMRoundRect*
0 Rectangle with rounded corners*
0 $1 Rounding radius*
0 $2 $3 $4 $5 $6 $7 $8 $9 X,Y pos of 4 corners*
0 Add a 4 corners polygon primitive as box body*
4,1,4,$2,$3,$4,$5,$6,$7,$8,$9,$2,$3,0*
0 Add four circle primitives for the rounded corners*
1,1,$1+$1,$2,$3,0*
1,1,$1+$1,$4,$5,0*
1,1,$1+$1,$6,$7,0*
1,1,$1+$1,$8,$9,0*
0 Add four rect primitives between the rounded corners*
20,1,$1+$1,$2,$3,$4,$5,0*
20,1,$1+$1,$4,$5,$6,$7,0*
20,1,$1+$1,$6,$7,$8,$9,0*
20,1,$1+$1,$8,$9,$2,$3,0*%
G04 Aperture macros list end*
%TA.AperFunction,SMDPad,CuDef*%
%ADD10RoundRect,0.147500X0.147500X0.172500X-0.147500X0.172500X-0.147500X-0.172500X0.147500X-0.172500X0*%
%TD*%
%TA.AperFunction,SMDPad,CuDef*%
%ADD11RoundRect,0.147500X-0.172500X0.147500X-0.172500X-0.147500X0.172500X-0.147500X0.172500X0.147500X0*%
%TD*%
%TA.AperFunction,SMDPad,CuDef*%
%ADD12RoundRect,0.147500X-0.147500X-0.172500X0.147500X-0.172500X0.147500X0.172500X-0.147500X0.172500X0*%
%TD*%
%TA.AperFunction,SMDPad,CuDef*%
%ADD13RoundRect,0.147500X0.172500X-0.147500X0.172500X0.147500X-0.172500X0.147500X-0.172500X-0.147500X0*%
%TD*%
%TA.AperFunction,SMDPad,CuDef*%
%ADD14RoundRect,0.062500X0.062500X-0.350000X0.062500X0.350000X-0.062500X0.350000X-0.062500X-0.350000X0*%
%TD*%
%TA.AperFunction,SMDPad,CuDef*%
%ADD15RoundRect,0.062500X0.350000X-0.062500X0.350000X0.062500X-0.350000X0.062500X-0.350000X-0.062500X0*%
%TD*%
%TA.AperFunction,SMDPad,CuDef*%
%ADD16RoundRect,0.250000X1.000000X-1.000000X1.000000X1.000000X-1.000000X1.000000X-1.000000X-1.000000X0*%
%TD*%
%TA.AperFunction,SMDPad,CuDef*%
%ADD17R,1.200000X1.400000*%
%TD*%
%TA.AperFunction,ConnectorPad*%
%ADD18R,0.500000X0.500000*%
%TD*%
%TA.AperFunction,ComponentPad*%
%ADD19R,0.900000X0.500000*%
%TD*%
%TA.AperFunction,ComponentPad*%
%ADD20R,1.700000X1.700000*%
%TD*%
%TA.AperFunction,ComponentPad*%
%ADD21O,1.700000X1.700000*%
%TD*%
%TA.AperFunction,ViaPad*%
%ADD22C,0.685800*%
%TD*%
%TA.AperFunction,Conductor*%
%ADD23C,0.254000*%
%TD*%
%TA.AperFunction,Conductor*%
%ADD24C,0.152400*%
%TD*%
G04 APERTURE END LIST*
%TO.C,AE1*%
G36*
X54150000Y-96250000D02*
G01*
X54150000Y-95991842D01*
X54451778Y-95991842D01*
X54458309Y-96041368D01*
X54478868Y-96086553D01*
X54512511Y-96121787D01*
X54531122Y-96132400D01*
X54576637Y-96145300D01*
X54625156Y-96146043D01*
X54667819Y-96133935D01*
X54675731Y-96129581D01*
X54713674Y-96096797D01*
X54737742Y-96054395D01*
X54747583Y-96006785D01*
X54742847Y-95958378D01*
X54723185Y-95913584D01*
X54688245Y-95876814D01*
X54655353Y-95859908D01*
X54607267Y-95852018D01*
X54557682Y-95858592D01*
X54512372Y-95878687D01*
X54477112Y-95911357D01*
X54460218Y-95943583D01*
X54451778Y-95991842D01*
X54150000Y-95991842D01*
X54150000Y-91350000D01*
X52750000Y-91350000D01*
X52750000Y-96250000D01*
X52250000Y-96250000D01*
X52250000Y-91350000D01*
X50550000Y-91350000D01*
X50550000Y-93990000D01*
X47550000Y-93990000D01*
X47550000Y-91350000D01*
X45850000Y-91350000D01*
X45850000Y-93990000D01*
X42850000Y-93990000D01*
X42850000Y-91350000D01*
X41150000Y-91350000D01*
X41150000Y-95290000D01*
X40650000Y-95290000D01*
X40650000Y-90850000D01*
X43350000Y-90850000D01*
X43350000Y-93490000D01*
X45350000Y-93490000D01*
X45350000Y-90850000D01*
X48050000Y-90850000D01*
X48050000Y-93490000D01*
X50050000Y-93490000D01*
X50050000Y-90850000D01*
X55050000Y-90850000D01*
X55050000Y-96250000D01*
X54150000Y-96250000D01*
G37*
%TD*%
D10*
%TO.P,C3,1*%
%TO.N,GND*%
X55485000Y-102000000D03*
%TO.P,C3,2*%
%TO.N,Net-(U1-Pad11)*%
X54515000Y-102000000D03*
%TD*%
D11*
%TO.P,C9,1*%
%TO.N,GND*%
X48000000Y-104415000D03*
%TO.P,C9,2*%
%TO.N,VDD*%
X48000000Y-105385000D03*
%TD*%
D12*
%TO.P,L1,1*%
%TO.N,Net-(U1-Pad13)*%
X52515000Y-102000000D03*
%TO.P,L1,2*%
%TO.N,Net-(U1-Pad12)*%
X53485000Y-102000000D03*
%TD*%
D13*
%TO.P,R1,1*%
%TO.N,Net-(R1-Pad1)*%
X59400000Y-105285000D03*
%TO.P,R1,2*%
%TO.N,Net-(R1-Pad2)*%
X59400000Y-104315000D03*
%TD*%
D12*
%TO.P,C1,1*%
%TO.N,Net-(R1-Pad2)*%
X57215000Y-102200000D03*
%TO.P,C1,2*%
%TO.N,GND*%
X58185000Y-102200000D03*
%TD*%
D10*
%TO.P,C2,1*%
%TO.N,Net-(R1-Pad1)*%
X58485000Y-107400000D03*
%TO.P,C2,2*%
%TO.N,GND*%
X57515000Y-107400000D03*
%TD*%
D14*
%TO.P,U1,1,CE*%
%TO.N,CE*%
X51500000Y-107437500D03*
%TO.P,U1,2,CSN*%
%TO.N,CSN*%
X52000000Y-107437500D03*
%TO.P,U1,3,SCK*%
%TO.N,SCK*%
X52500000Y-107437500D03*
%TO.P,U1,4,MOSI*%
%TO.N,MOSI*%
X53000000Y-107437500D03*
%TO.P,U1,5,MISO*%
%TO.N,MISO*%
X53500000Y-107437500D03*
D15*
%TO.P,U1,6,IRQ*%
%TO.N,IRQ*%
X54437500Y-106500000D03*
%TO.P,U1,7,VDD*%
%TO.N,VDD*%
X54437500Y-106000000D03*
%TO.P,U1,8,VSS*%
%TO.N,GND*%
X54437500Y-105500000D03*
%TO.P,U1,9,XC2*%
%TO.N,Net-(R1-Pad1)*%
X54437500Y-105000000D03*
%TO.P,U1,10,XC1*%
%TO.N,Net-(R1-Pad2)*%
X54437500Y-104500000D03*
D14*
%TO.P,U1,11,VDD_PA*%
%TO.N,Net-(U1-Pad11)*%
X53500000Y-103562500D03*
%TO.P,U1,12,ANT1*%
%TO.N,Net-(U1-Pad12)*%
X53000000Y-103562500D03*
%TO.P,U1,13,ANT2*%
%TO.N,Net-(U1-Pad13)*%
X52500000Y-103562500D03*
%TO.P,U1,14,VSS*%
%TO.N,GND*%
X52000000Y-103562500D03*
%TO.P,U1,15,VDD*%
%TO.N,VDD*%
X51500000Y-103562500D03*
D15*
%TO.P,U1,16,IREF*%
%TO.N,Net-(U1-Pad16)*%
X50562500Y-104500000D03*
%TO.P,U1,17,VSS*%
%TO.N,GND*%
X50562500Y-105000000D03*
%TO.P,U1,18,VDD*%
%TO.N,VDD*%
X50562500Y-105500000D03*
%TO.P,U1,19,DVDD*%
%TO.N,Net-(U1-Pad19)*%
X50562500Y-106000000D03*
%TO.P,U1,20,VSS*%
%TO.N,GND*%
X50562500Y-106500000D03*
D16*
%TO.P,U1,21*%
%TO.N,N/C*%
X52500000Y-105500000D03*
%TD*%
D17*
%TO.P,X1,1,1*%
%TO.N,Net-(R1-Pad1)*%
X57950000Y-105900000D03*
%TO.P,X1,2,2*%
%TO.N,GND*%
X57950000Y-103700000D03*
%TO.P,X1,3,3*%
%TO.N,Net-(R1-Pad2)*%
X56250000Y-103700000D03*
%TO.P,X1,4,4*%
%TO.N,GND*%
X56250000Y-105900000D03*
%TD*%
D11*
%TO.P,L3,1*%
%TO.N,Net-(C5-Pad1)*%
X52500000Y-100015000D03*
%TO.P,L3,2*%
%TO.N,Net-(U1-Pad13)*%
X52500000Y-100985000D03*
%TD*%
%TO.P,C8,1*%
%TO.N,GND*%
X49200000Y-104415000D03*
%TO.P,C8,2*%
%TO.N,VDD*%
X49200000Y-105385000D03*
%TD*%
D10*
%TO.P,C4,1*%
%TO.N,GND*%
X56485000Y-101000000D03*
%TO.P,C4,2*%
%TO.N,Net-(U1-Pad11)*%
X55515000Y-101000000D03*
%TD*%
D12*
%TO.P,R2,1*%
%TO.N,GND*%
X48215000Y-103200000D03*
%TO.P,R2,2*%
%TO.N,Net-(U1-Pad16)*%
X49185000Y-103200000D03*
%TD*%
D18*
%TO.P,AE1,1,A*%
%TO.N,Net-(C5-Pad2)*%
X52500000Y-96000000D03*
D19*
%TO.P,AE1,2,Shield*%
%TO.N,GND*%
X54600000Y-96000000D03*
%TD*%
D12*
%TO.P,C6,1*%
%TO.N,Net-(C5-Pad2)*%
X53515000Y-98000000D03*
%TO.P,C6,2*%
%TO.N,GND*%
X54485000Y-98000000D03*
%TD*%
D20*
%TO.P,J1,1,Pin_1*%
%TO.N,GND*%
X50000000Y-113000000D03*
D21*
%TO.P,J1,2,Pin_2*%
%TO.N,VDD*%
X50000000Y-110460000D03*
%TO.P,J1,3,Pin_3*%
%TO.N,CE*%
X52540000Y-113000000D03*
%TO.P,J1,4,Pin_4*%
%TO.N,CSN*%
X52540000Y-110460000D03*
%TO.P,J1,5,Pin_5*%
%TO.N,SCK*%
X55080000Y-113000000D03*
%TO.P,J1,6,Pin_6*%
%TO.N,MOSI*%
X55080000Y-110460000D03*
%TO.P,J1,7,Pin_7*%
%TO.N,MISO*%
X57620000Y-113000000D03*
%TO.P,J1,8,Pin_8*%
%TO.N,IRQ*%
X57620000Y-110460000D03*
%TD*%
D12*
%TO.P,L2,1*%
%TO.N,Net-(U1-Pad12)*%
X53515000Y-101000000D03*
%TO.P,L2,2*%
%TO.N,Net-(U1-Pad11)*%
X54485000Y-101000000D03*
%TD*%
D11*
%TO.P,C7,1*%
%TO.N,Net-(U1-Pad19)*%
X49200000Y-106315000D03*
%TO.P,C7,2*%
%TO.N,GND*%
X49200000Y-107285000D03*
%TD*%
D13*
%TO.P,C5,1*%
%TO.N,Net-(C5-Pad1)*%
X52500000Y-98985000D03*
%TO.P,C5,2*%
%TO.N,Net-(C5-Pad2)*%
X52500000Y-98015000D03*
%TD*%
D22*
%TO.N,GND*%
X56900000Y-107000000D03*
X51500000Y-102000000D03*
X48500000Y-112000000D03*
X53500000Y-99000000D03*
X56300000Y-102000000D03*
X53500000Y-100000000D03*
X54600000Y-96900000D03*
X56500000Y-100000000D03*
X49000000Y-111500000D03*
X59200000Y-102200000D03*
X50100000Y-108500000D03*
X55500000Y-98000000D03*
X51500000Y-101000000D03*
X54500000Y-103500000D03*
X49200000Y-108100000D03*
X51500000Y-98000000D03*
X54500000Y-100000000D03*
X57500000Y-101000000D03*
X47100000Y-104300000D03*
X57500000Y-100000000D03*
X48500000Y-113000000D03*
X49900000Y-106900000D03*
X47400000Y-103200000D03*
X51500000Y-97000000D03*
X50400000Y-107600000D03*
X51500000Y-100000000D03*
X51500000Y-99000000D03*
X54500000Y-99000000D03*
X48000000Y-112500000D03*
X55500000Y-100000000D03*
%TD*%
D23*
%TO.N,Net-(C5-Pad2)*%
X53500000Y-98015000D02*
X53515000Y-98000000D01*
X52500000Y-98015000D02*
X53500000Y-98015000D01*
X52500000Y-96000000D02*
X52500000Y-98015000D01*
%TO.N,Net-(U1-Pad19)*%
X50100000Y-106000000D02*
X49200000Y-106315000D01*
X50562500Y-106000000D02*
X50100000Y-106000000D01*
%TO.N,GND*%
X51500000Y-102000000D02*
X52000000Y-102500000D01*
X50562500Y-106500000D02*
X50000000Y-107062500D01*
X52000000Y-102500000D02*
X52000000Y-103562500D01*
X54600000Y-96900000D02*
X54600000Y-97885000D01*
X49221058Y-104415000D02*
X49806058Y-105000000D01*
X47885000Y-104300000D02*
X48000000Y-104415000D01*
X50000000Y-107062500D02*
X49422500Y-107062500D01*
X47100000Y-104300000D02*
X47885000Y-104300000D01*
X56250000Y-106135000D02*
X57515000Y-107400000D01*
X49422500Y-107062500D02*
X49200000Y-107285000D01*
D24*
X55485000Y-102000000D02*
X55200000Y-102600000D01*
D23*
X55850000Y-105500000D02*
X56250000Y-105900000D01*
X54600000Y-97885000D02*
X54485000Y-98000000D01*
X49806058Y-105000000D02*
X50562500Y-105000000D01*
X56250000Y-105900000D02*
X56250000Y-106135000D01*
D24*
X55200000Y-102600000D02*
X54500000Y-103500000D01*
D23*
X54600000Y-96000000D02*
X54600000Y-96900000D01*
X54437500Y-105500000D02*
X55850000Y-105500000D01*
X49200000Y-104415000D02*
X49221058Y-104415000D01*
X55485000Y-102000000D02*
X56500000Y-102000000D01*
%TO.N,Net-(R1-Pad2)*%
X56900000Y-102735000D02*
X56250000Y-103700000D01*
X57215000Y-102200000D02*
X56900000Y-102735000D01*
D24*
X59400000Y-104315000D02*
X59086390Y-104628610D01*
X59086390Y-104628610D02*
X57178610Y-104628610D01*
X55200000Y-104400000D02*
X56250000Y-103700000D01*
X57178610Y-104628610D02*
X56250000Y-103700000D01*
X54437500Y-104500000D02*
X55200000Y-104400000D01*
D23*
%TO.N,Net-(U1-Pad16)*%
X49262500Y-103200000D02*
X50562500Y-104500000D01*
X49185000Y-103200000D02*
X49262500Y-103200000D01*
%TO.N,Net-(C5-Pad1)*%
X52500000Y-98985000D02*
X52500000Y-100015000D01*
%TO.N,VDD*%
X50000000Y-110460000D02*
X48000000Y-108460000D01*
X47150000Y-102150000D02*
X49137234Y-102137234D01*
X51300000Y-113431514D02*
X51300000Y-111760000D01*
X49200000Y-105385000D02*
X49315000Y-105500000D01*
X57891514Y-114400000D02*
X52268486Y-114400000D01*
X48720000Y-109180000D02*
X48000000Y-105385000D01*
X46300000Y-103000000D02*
X47150000Y-102150000D01*
X55200000Y-106350000D02*
X55200000Y-108000000D01*
X52268486Y-114400000D02*
X51300000Y-113431514D01*
X59100000Y-109500000D02*
X59100000Y-113191514D01*
X48000000Y-108460000D02*
X46300000Y-104400000D01*
X55000000Y-106000000D02*
X55200000Y-106350000D01*
X55200000Y-108000000D02*
X56500000Y-109100000D01*
X46300000Y-104400000D02*
X46300000Y-103000000D01*
X59100000Y-113191514D02*
X57891514Y-114400000D01*
X58700000Y-109100000D02*
X59100000Y-109500000D01*
X56500000Y-109100000D02*
X58700000Y-109100000D01*
X49315000Y-105500000D02*
X50562500Y-105500000D01*
X54437500Y-106000000D02*
X55000000Y-106000000D01*
X49137234Y-102137234D02*
X51500000Y-103562500D01*
X51300000Y-111760000D02*
X50000000Y-110460000D01*
X48000000Y-105385000D02*
X49200000Y-105385000D01*
%TO.N,Net-(U1-Pad13)*%
X52500000Y-101985000D02*
X52515000Y-102000000D01*
X52500000Y-100985000D02*
X52500000Y-101985000D01*
X52500000Y-103562500D02*
X52500000Y-102015000D01*
X52500000Y-102015000D02*
X52515000Y-102000000D01*
%TO.N,Net-(U1-Pad12)*%
X53515000Y-101000000D02*
X53493787Y-101021213D01*
X53481517Y-102251755D02*
X53485000Y-102119107D01*
X53000000Y-103562500D02*
X53000000Y-102805000D01*
X53493787Y-101021213D02*
X53487978Y-101024371D01*
X53000000Y-102805000D02*
X53342947Y-102462053D01*
X53386759Y-102415877D02*
X53481517Y-102251755D01*
X53342947Y-102462053D02*
X53386759Y-102415877D01*
X53485000Y-101680000D02*
X53485000Y-102000000D01*
X53487978Y-101024371D02*
X53485000Y-101027349D01*
X53485000Y-102119107D02*
X53485000Y-102000000D01*
X53485000Y-101027349D02*
X53485000Y-101680000D01*
%TO.N,Net-(U1-Pad11)*%
X54506213Y-101021213D02*
X54512022Y-101024371D01*
X54485000Y-101000000D02*
X55515000Y-101000000D01*
X54512022Y-101024371D02*
X54515000Y-101027349D01*
X54485000Y-101000000D02*
X54506213Y-101021213D01*
X54515000Y-101680000D02*
X54515000Y-102000000D01*
X54515000Y-101027349D02*
X54515000Y-101680000D01*
X53500000Y-103562500D02*
X53500000Y-103015000D01*
X53500000Y-103015000D02*
X54515000Y-102000000D01*
D24*
%TO.N,CE*%
X51375000Y-110725000D02*
X52540000Y-113000000D01*
X51375000Y-107562500D02*
X51375000Y-110725000D01*
X51500000Y-107437500D02*
X51375000Y-107562500D01*
%TO.N,Net-(R1-Pad1)*%
X57100000Y-105000000D02*
X57877576Y-105899999D01*
X56493933Y-104875001D02*
X57100000Y-105000000D01*
X54437500Y-105000000D02*
X55000000Y-105000000D01*
X55675001Y-104875001D02*
X56493933Y-104875001D01*
D23*
X58350000Y-106300000D02*
X58350000Y-107265000D01*
D24*
X57950000Y-105899999D02*
X57950000Y-105900000D01*
D23*
X58350000Y-107265000D02*
X58485000Y-107400000D01*
D24*
X57877576Y-105899999D02*
X57950000Y-105899999D01*
X55000000Y-105000000D02*
X55675001Y-104875001D01*
D23*
X59400000Y-105285000D02*
X58800000Y-105500000D01*
X57950000Y-105900000D02*
X58350000Y-106300000D01*
X58800000Y-105500000D02*
X57950000Y-105900000D01*
D24*
%TO.N,CSN*%
X52000000Y-109920000D02*
X52540000Y-110460000D01*
X52000000Y-107437500D02*
X52000000Y-109920000D01*
%TO.N,SCK*%
X52500000Y-107437500D02*
X52500000Y-108500000D01*
X53800000Y-110000000D02*
X53800000Y-111800000D01*
X53800000Y-111800000D02*
X55080000Y-113000000D01*
X52500000Y-108500000D02*
X53800000Y-110000000D01*
%TO.N,MOSI*%
X53000000Y-107437500D02*
X53000000Y-108380000D01*
X53000000Y-108380000D02*
X55080000Y-110460000D01*
%TO.N,MISO*%
X56300000Y-111680000D02*
X57620000Y-113000000D01*
X55516330Y-109300000D02*
X56300000Y-110083670D01*
X53500000Y-108200000D02*
X54600000Y-109300000D01*
X54600000Y-109300000D02*
X55516330Y-109300000D01*
X53500000Y-107437500D02*
X53500000Y-108200000D01*
X56300000Y-110083670D02*
X56300000Y-111680000D01*
%TO.N,IRQ*%
X57107396Y-110460000D02*
X57620000Y-110460000D01*
X54800000Y-108900000D02*
X55547396Y-108900000D01*
X56600000Y-109952604D02*
X57107396Y-110460000D01*
X54437500Y-108537500D02*
X54800000Y-108900000D01*
X54437500Y-106500000D02*
X54437500Y-108537500D01*
X55547396Y-108900000D02*
X56600000Y-109952604D01*
%TD*%
%TA.AperFunction,Conductor*%
%TO.N,GND*%
G36*
X53877623Y-96267593D02*
G01*
X53903040Y-96310530D01*
X53910715Y-96349115D01*
X53966859Y-96433141D01*
X54050885Y-96489285D01*
X54058147Y-96490729D01*
X54058148Y-96490730D01*
X54124863Y-96504000D01*
X54132128Y-96505445D01*
X54150000Y-96509000D01*
X54167873Y-96505445D01*
X54182543Y-96504000D01*
X55017457Y-96504000D01*
X55032127Y-96505445D01*
X55050000Y-96509000D01*
X55067873Y-96505445D01*
X55075137Y-96504000D01*
X55141852Y-96490730D01*
X55141853Y-96490729D01*
X55149115Y-96489285D01*
X55233141Y-96433141D01*
X55289285Y-96349115D01*
X55296960Y-96310530D01*
X55323645Y-96266553D01*
X55370715Y-96250000D01*
X61496304Y-96250000D01*
X61503676Y-96250362D01*
X61687721Y-96268489D01*
X61702178Y-96271365D01*
X61875597Y-96323971D01*
X61889213Y-96329610D01*
X62049047Y-96415044D01*
X62061288Y-96423223D01*
X62201391Y-96538202D01*
X62211798Y-96548609D01*
X62326777Y-96688712D01*
X62334956Y-96700953D01*
X62420388Y-96860783D01*
X62426029Y-96874403D01*
X62478635Y-97047822D01*
X62481511Y-97062280D01*
X62499638Y-97246325D01*
X62500000Y-97253696D01*
X62500000Y-113734899D01*
X62499638Y-113742271D01*
X62481503Y-113926360D01*
X62478625Y-113940820D01*
X62473911Y-113956358D01*
X62425998Y-114114267D01*
X62420355Y-114127889D01*
X62334889Y-114287744D01*
X62326700Y-114299996D01*
X62249476Y-114394065D01*
X62211685Y-114440099D01*
X62201257Y-114450522D01*
X62061116Y-114565488D01*
X62048854Y-114573678D01*
X61888971Y-114659086D01*
X61875355Y-114664722D01*
X61785069Y-114692083D01*
X61701879Y-114717293D01*
X61687417Y-114720165D01*
X61503325Y-114738235D01*
X61495966Y-114738595D01*
X58275086Y-114737470D01*
X58226755Y-114719860D01*
X58201051Y-114675302D01*
X58210001Y-114624647D01*
X58221939Y-114609096D01*
X58755097Y-114075939D01*
X59336213Y-113494823D01*
X59348595Y-113484822D01*
X59354897Y-113480753D01*
X59354898Y-113480752D01*
X59360119Y-113477381D01*
X59381451Y-113450322D01*
X59387332Y-113443704D01*
X59391002Y-113440034D01*
X59403933Y-113421940D01*
X59406059Y-113419108D01*
X59434846Y-113382592D01*
X59438693Y-113377712D01*
X59440751Y-113371849D01*
X59442027Y-113369529D01*
X59442191Y-113369268D01*
X59442317Y-113368968D01*
X59443474Y-113366606D01*
X59447087Y-113361551D01*
X59462188Y-113311056D01*
X59463272Y-113307720D01*
X59480745Y-113257965D01*
X59481500Y-113249247D01*
X59481500Y-113248874D01*
X59481783Y-113245538D01*
X59483452Y-113239956D01*
X59481558Y-113191753D01*
X59481500Y-113188801D01*
X59481500Y-109547438D01*
X59483184Y-109531611D01*
X59484762Y-109524283D01*
X59484762Y-109524281D01*
X59486070Y-109518206D01*
X59482021Y-109483995D01*
X59481500Y-109475156D01*
X59481500Y-109469960D01*
X59477846Y-109448009D01*
X59477347Y-109444505D01*
X59474500Y-109420450D01*
X59471153Y-109392169D01*
X59468463Y-109386567D01*
X59467727Y-109384034D01*
X59467657Y-109383727D01*
X59467539Y-109383439D01*
X59466682Y-109380937D01*
X59465662Y-109374806D01*
X59440627Y-109328406D01*
X59439046Y-109325305D01*
X59416215Y-109277760D01*
X59413173Y-109274141D01*
X59413171Y-109274138D01*
X59411641Y-109272319D01*
X59410584Y-109271061D01*
X59410321Y-109270798D01*
X59408163Y-109268241D01*
X59405395Y-109263111D01*
X59369967Y-109230362D01*
X59367839Y-109228316D01*
X59003309Y-108863788D01*
X58993308Y-108851405D01*
X58989236Y-108845099D01*
X58985867Y-108839881D01*
X58958798Y-108818540D01*
X58952185Y-108812663D01*
X58950710Y-108811188D01*
X58948519Y-108808998D01*
X58930437Y-108796076D01*
X58927604Y-108793949D01*
X58891080Y-108765155D01*
X58891077Y-108765153D01*
X58886198Y-108761307D01*
X58880334Y-108759248D01*
X58878011Y-108757971D01*
X58877756Y-108757810D01*
X58877454Y-108757684D01*
X58875094Y-108756528D01*
X58870036Y-108752913D01*
X58819549Y-108737814D01*
X58816200Y-108736725D01*
X58766451Y-108719255D01*
X58757733Y-108718500D01*
X58757361Y-108718500D01*
X58754023Y-108718217D01*
X58748441Y-108716548D01*
X58742231Y-108716792D01*
X58700238Y-108718442D01*
X58697286Y-108718500D01*
X56667293Y-108718500D01*
X56618718Y-108700707D01*
X56181077Y-108330396D01*
X55608125Y-107845591D01*
X55582589Y-107800937D01*
X55581500Y-107788184D01*
X55581500Y-107536068D01*
X56966000Y-107536068D01*
X56966000Y-107601113D01*
X56966462Y-107606985D01*
X56979970Y-107692267D01*
X56983583Y-107703388D01*
X57035946Y-107806157D01*
X57042825Y-107815624D01*
X57124375Y-107897174D01*
X57133842Y-107904053D01*
X57236612Y-107956417D01*
X57247732Y-107960030D01*
X57333014Y-107973538D01*
X57338886Y-107974000D01*
X57374741Y-107974000D01*
X57384898Y-107970303D01*
X57388000Y-107964931D01*
X57388001Y-107540260D01*
X57384304Y-107530101D01*
X57378932Y-107527000D01*
X56979260Y-107526999D01*
X56969101Y-107530696D01*
X56966000Y-107536068D01*
X55581500Y-107536068D01*
X55581500Y-106934200D01*
X55599093Y-106885862D01*
X55643642Y-106860142D01*
X55656700Y-106859000D01*
X56109741Y-106859000D01*
X56119898Y-106855303D01*
X56123000Y-106849931D01*
X56123001Y-105848200D01*
X56140595Y-105799862D01*
X56185143Y-105774142D01*
X56198202Y-105773000D01*
X56301801Y-105773001D01*
X56350138Y-105790595D01*
X56375858Y-105835143D01*
X56377000Y-105848201D01*
X56376999Y-106845741D01*
X56380696Y-106855898D01*
X56386068Y-106859000D01*
X56846304Y-106859000D01*
X56853625Y-106858279D01*
X56941852Y-106840730D01*
X56955272Y-106835171D01*
X57026987Y-106787253D01*
X57042494Y-106771746D01*
X57043333Y-106772585D01*
X57078664Y-106746681D01*
X57129994Y-106750046D01*
X57156753Y-106772500D01*
X57157154Y-106772099D01*
X57158141Y-106773086D01*
X57158584Y-106774036D01*
X57162231Y-106777096D01*
X57166505Y-106783492D01*
X57163828Y-106785281D01*
X57179881Y-106819706D01*
X57166567Y-106869393D01*
X57139108Y-106893263D01*
X57133845Y-106895944D01*
X57124376Y-106902825D01*
X57042826Y-106984375D01*
X57035947Y-106993842D01*
X56983583Y-107096612D01*
X56979970Y-107107732D01*
X56966462Y-107193014D01*
X56966000Y-107198886D01*
X56966000Y-107259741D01*
X56969697Y-107269898D01*
X56975069Y-107273000D01*
X57387998Y-107273001D01*
X57388004Y-107273000D01*
X57566800Y-107273001D01*
X57615138Y-107290595D01*
X57640858Y-107335143D01*
X57642000Y-107348201D01*
X57641999Y-107960741D01*
X57645696Y-107970898D01*
X57651068Y-107974000D01*
X57691113Y-107974000D01*
X57696985Y-107973538D01*
X57782267Y-107960030D01*
X57793388Y-107956417D01*
X57896157Y-107904054D01*
X57905620Y-107897178D01*
X57946477Y-107856322D01*
X57993098Y-107834583D01*
X58042785Y-107847897D01*
X58052824Y-107856322D01*
X58098271Y-107901769D01*
X58211730Y-107959580D01*
X58244221Y-107964726D01*
X58303013Y-107974038D01*
X58303015Y-107974038D01*
X58305931Y-107974500D01*
X58664068Y-107974500D01*
X58666984Y-107974038D01*
X58666986Y-107974038D01*
X58725778Y-107964726D01*
X58758269Y-107959580D01*
X58818698Y-107928790D01*
X58866451Y-107904459D01*
X58866452Y-107904458D01*
X58871728Y-107901770D01*
X58961769Y-107811729D01*
X59019580Y-107698270D01*
X59024726Y-107665779D01*
X59034038Y-107606987D01*
X59034038Y-107606985D01*
X59034500Y-107604069D01*
X59034500Y-107195932D01*
X59019580Y-107101731D01*
X58961770Y-106988272D01*
X58871729Y-106898231D01*
X58866450Y-106895541D01*
X58866447Y-106895539D01*
X58786812Y-106854962D01*
X58751730Y-106817342D01*
X58749038Y-106765972D01*
X58758423Y-106746185D01*
X58789747Y-106699306D01*
X58796377Y-106665977D01*
X58808779Y-106603625D01*
X58808779Y-106603624D01*
X58809500Y-106600000D01*
X58809500Y-105964883D01*
X58827093Y-105916545D01*
X58852680Y-105896841D01*
X58921491Y-105864459D01*
X58942663Y-105854496D01*
X58949296Y-105851754D01*
X59046123Y-105817058D01*
X59094729Y-105816331D01*
X59096452Y-105816891D01*
X59101730Y-105819580D01*
X59157469Y-105828408D01*
X59193013Y-105834038D01*
X59193015Y-105834038D01*
X59195931Y-105834500D01*
X59604068Y-105834500D01*
X59606984Y-105834038D01*
X59606986Y-105834038D01*
X59692422Y-105820506D01*
X59698269Y-105819580D01*
X59811728Y-105761770D01*
X59901770Y-105671729D01*
X59959580Y-105558270D01*
X59974500Y-105464069D01*
X59974500Y-105105932D01*
X59959580Y-105011731D01*
X59901770Y-104898272D01*
X59878498Y-104875000D01*
X59856673Y-104853174D01*
X59834934Y-104806553D01*
X59848248Y-104756866D01*
X59856674Y-104746826D01*
X59897581Y-104705919D01*
X59897584Y-104705915D01*
X59901770Y-104701729D01*
X59959580Y-104588270D01*
X59966323Y-104545696D01*
X59974038Y-104496987D01*
X59974038Y-104496985D01*
X59974500Y-104494069D01*
X59974500Y-104135932D01*
X59971353Y-104116059D01*
X59960506Y-104047578D01*
X59959580Y-104041731D01*
X59901770Y-103928272D01*
X59811729Y-103838230D01*
X59698270Y-103780420D01*
X59654819Y-103773538D01*
X59606987Y-103765962D01*
X59606985Y-103765962D01*
X59604069Y-103765500D01*
X59195932Y-103765500D01*
X59193016Y-103765962D01*
X59193014Y-103765962D01*
X59145182Y-103773538D01*
X59101731Y-103780420D01*
X58988272Y-103838230D01*
X58984089Y-103842413D01*
X58937374Y-103889127D01*
X58890753Y-103910866D01*
X58841066Y-103897552D01*
X58811562Y-103855414D01*
X58809888Y-103842699D01*
X58805303Y-103830102D01*
X58799931Y-103827000D01*
X57898200Y-103826999D01*
X57849862Y-103809405D01*
X57824142Y-103764857D01*
X57823000Y-103751798D01*
X57823001Y-103648199D01*
X57840595Y-103599862D01*
X57885143Y-103574142D01*
X57898201Y-103573000D01*
X58795741Y-103573001D01*
X58805898Y-103569304D01*
X58809000Y-103563932D01*
X58809000Y-103003696D01*
X58808279Y-102996375D01*
X58790730Y-102908148D01*
X58785171Y-102894728D01*
X58737253Y-102823013D01*
X58726987Y-102812747D01*
X58655271Y-102764828D01*
X58655087Y-102764752D01*
X58654899Y-102764580D01*
X58649115Y-102760715D01*
X58649710Y-102759824D01*
X58617164Y-102729997D01*
X58610454Y-102678997D01*
X58630696Y-102642104D01*
X58657175Y-102615625D01*
X58664054Y-102606158D01*
X58716417Y-102503389D01*
X58720030Y-102492268D01*
X58733538Y-102406986D01*
X58734000Y-102401114D01*
X58734000Y-102340259D01*
X58730303Y-102330102D01*
X58724931Y-102327000D01*
X58133200Y-102327000D01*
X58084862Y-102309407D01*
X58059142Y-102264858D01*
X58058000Y-102251800D01*
X58058000Y-101639259D01*
X58056475Y-101635069D01*
X58312000Y-101635069D01*
X58312000Y-102059741D01*
X58315697Y-102069898D01*
X58321069Y-102073000D01*
X58720741Y-102073000D01*
X58730898Y-102069303D01*
X58734000Y-102063931D01*
X58734000Y-101998886D01*
X58733538Y-101993014D01*
X58720030Y-101907732D01*
X58716417Y-101896611D01*
X58664054Y-101793842D01*
X58657175Y-101784375D01*
X58575625Y-101702825D01*
X58566158Y-101695946D01*
X58463389Y-101643583D01*
X58452268Y-101639970D01*
X58366986Y-101626462D01*
X58361114Y-101626000D01*
X58325259Y-101626000D01*
X58315102Y-101629697D01*
X58312000Y-101635069D01*
X58056475Y-101635069D01*
X58054303Y-101629102D01*
X58048931Y-101626000D01*
X58008886Y-101626000D01*
X58003014Y-101626462D01*
X57917732Y-101639970D01*
X57906611Y-101643583D01*
X57803842Y-101695946D01*
X57794379Y-101702822D01*
X57753525Y-101743677D01*
X57706905Y-101765417D01*
X57657218Y-101752104D01*
X57647176Y-101743677D01*
X57601729Y-101698230D01*
X57488270Y-101640420D01*
X57420568Y-101629697D01*
X57396987Y-101625962D01*
X57396985Y-101625962D01*
X57394069Y-101625500D01*
X57035931Y-101625500D01*
X57033015Y-101625962D01*
X57033013Y-101625962D01*
X57009432Y-101629697D01*
X56941730Y-101640420D01*
X56828271Y-101698230D01*
X56738230Y-101788271D01*
X56735542Y-101793547D01*
X56735541Y-101793548D01*
X56733603Y-101797352D01*
X56680420Y-101901730D01*
X56665500Y-101995931D01*
X56665500Y-102360871D01*
X56655102Y-102399024D01*
X56593024Y-102504459D01*
X56578284Y-102529494D01*
X56575853Y-102533350D01*
X56458678Y-102707311D01*
X56417082Y-102737573D01*
X56396307Y-102740500D01*
X55650000Y-102740500D01*
X55646376Y-102741221D01*
X55646375Y-102741221D01*
X55557957Y-102758808D01*
X55557956Y-102758809D01*
X55550694Y-102760253D01*
X55544536Y-102764367D01*
X55544535Y-102764368D01*
X55529372Y-102774500D01*
X55466506Y-102816506D01*
X55462392Y-102822663D01*
X55421529Y-102883819D01*
X55410253Y-102900694D01*
X55408809Y-102907956D01*
X55408808Y-102907957D01*
X55400135Y-102951559D01*
X55390500Y-103000000D01*
X55390500Y-103835304D01*
X55372907Y-103883642D01*
X55357015Y-103897873D01*
X55210573Y-103995500D01*
X55095211Y-104072408D01*
X55063277Y-104084399D01*
X54792884Y-104119861D01*
X54783105Y-104120500D01*
X54059144Y-104120500D01*
X54055920Y-104121068D01*
X54055914Y-104121069D01*
X53983845Y-104133777D01*
X53983844Y-104133778D01*
X53977370Y-104134919D01*
X53955802Y-104147371D01*
X53905145Y-104156304D01*
X53860597Y-104130584D01*
X53843003Y-104082247D01*
X53847538Y-104056526D01*
X53877250Y-103974896D01*
X53877251Y-103974891D01*
X53879500Y-103968712D01*
X53879500Y-103639921D01*
X53880635Y-103629265D01*
X53880745Y-103628951D01*
X53881500Y-103620233D01*
X53881500Y-103204169D01*
X53899093Y-103155831D01*
X53903526Y-103150995D01*
X54457996Y-102596526D01*
X54504616Y-102574786D01*
X54511170Y-102574500D01*
X54694068Y-102574500D01*
X54696984Y-102574038D01*
X54696986Y-102574038D01*
X54782422Y-102560506D01*
X54788269Y-102559580D01*
X54861247Y-102522396D01*
X54896451Y-102504459D01*
X54896452Y-102504458D01*
X54901728Y-102501770D01*
X54947176Y-102456322D01*
X54993797Y-102434583D01*
X55043484Y-102447897D01*
X55053524Y-102456323D01*
X55094375Y-102497174D01*
X55103842Y-102504053D01*
X55206612Y-102556417D01*
X55217732Y-102560030D01*
X55303014Y-102573538D01*
X55308886Y-102574000D01*
X55344741Y-102574000D01*
X55354898Y-102570303D01*
X55358000Y-102564931D01*
X55358000Y-102560740D01*
X55611999Y-102560740D01*
X55615696Y-102570899D01*
X55621068Y-102574000D01*
X55661113Y-102574000D01*
X55666985Y-102573538D01*
X55752267Y-102560030D01*
X55763388Y-102556417D01*
X55866157Y-102504054D01*
X55875624Y-102497175D01*
X55957174Y-102415625D01*
X55964053Y-102406158D01*
X56016417Y-102303388D01*
X56020030Y-102292268D01*
X56033538Y-102206986D01*
X56034000Y-102201114D01*
X56034000Y-102140259D01*
X56030303Y-102130102D01*
X56024931Y-102127000D01*
X55625260Y-102126999D01*
X55615101Y-102130696D01*
X55612000Y-102136068D01*
X55611999Y-102560740D01*
X55358000Y-102560740D01*
X55358001Y-102127000D01*
X55358000Y-102126996D01*
X55358001Y-101948200D01*
X55375595Y-101899862D01*
X55420143Y-101874142D01*
X55433201Y-101873000D01*
X56020741Y-101873001D01*
X56030898Y-101869304D01*
X56034000Y-101863932D01*
X56034000Y-101798887D01*
X56033538Y-101793015D01*
X56020030Y-101707733D01*
X56016417Y-101696612D01*
X55964054Y-101593843D01*
X55957175Y-101584376D01*
X55941323Y-101568524D01*
X55919583Y-101521904D01*
X55932897Y-101472217D01*
X55941323Y-101462176D01*
X55947176Y-101456323D01*
X55993796Y-101434583D01*
X56043483Y-101447897D01*
X56053524Y-101456323D01*
X56094375Y-101497174D01*
X56103842Y-101504053D01*
X56206612Y-101556417D01*
X56217732Y-101560030D01*
X56303014Y-101573538D01*
X56308886Y-101574000D01*
X56344741Y-101574000D01*
X56354898Y-101570303D01*
X56358000Y-101564931D01*
X56358000Y-101560740D01*
X56611999Y-101560740D01*
X56615696Y-101570899D01*
X56621068Y-101574000D01*
X56661113Y-101574000D01*
X56666985Y-101573538D01*
X56752267Y-101560030D01*
X56763388Y-101556417D01*
X56866157Y-101504054D01*
X56875624Y-101497175D01*
X56957174Y-101415625D01*
X56964053Y-101406158D01*
X57016417Y-101303388D01*
X57020030Y-101292268D01*
X57033538Y-101206986D01*
X57034000Y-101201114D01*
X57034000Y-101140259D01*
X57030303Y-101130102D01*
X57024931Y-101127000D01*
X56625260Y-101126999D01*
X56615101Y-101130696D01*
X56612000Y-101136068D01*
X56611999Y-101560740D01*
X56358000Y-101560740D01*
X56358001Y-101127000D01*
X56358000Y-101126996D01*
X56358000Y-100859740D01*
X56611999Y-100859740D01*
X56615696Y-100869899D01*
X56621068Y-100873000D01*
X57020740Y-100873001D01*
X57030899Y-100869304D01*
X57034000Y-100863932D01*
X57034000Y-100798887D01*
X57033538Y-100793015D01*
X57020030Y-100707733D01*
X57016417Y-100696612D01*
X56964054Y-100593843D01*
X56957175Y-100584376D01*
X56875625Y-100502826D01*
X56866158Y-100495947D01*
X56763388Y-100443583D01*
X56752268Y-100439970D01*
X56666986Y-100426462D01*
X56661114Y-100426000D01*
X56625259Y-100426000D01*
X56615102Y-100429697D01*
X56612000Y-100435069D01*
X56611999Y-100859740D01*
X56358000Y-100859740D01*
X56358001Y-100439259D01*
X56354304Y-100429102D01*
X56348932Y-100426000D01*
X56308887Y-100426000D01*
X56303015Y-100426462D01*
X56217733Y-100439970D01*
X56206612Y-100443583D01*
X56103843Y-100495946D01*
X56094380Y-100502822D01*
X56053525Y-100543678D01*
X56006905Y-100565418D01*
X55957218Y-100552105D01*
X55947176Y-100543678D01*
X55901729Y-100498231D01*
X55788270Y-100440420D01*
X55720568Y-100429697D01*
X55696987Y-100425962D01*
X55696985Y-100425962D01*
X55694069Y-100425500D01*
X55335932Y-100425500D01*
X55333016Y-100425962D01*
X55333014Y-100425962D01*
X55309433Y-100429697D01*
X55241731Y-100440420D01*
X55209452Y-100456867D01*
X55140951Y-100491770D01*
X55128272Y-100498230D01*
X55053172Y-100573330D01*
X55006556Y-100595068D01*
X54956868Y-100581755D01*
X54946827Y-100573328D01*
X54871729Y-100498230D01*
X54859051Y-100491770D01*
X54790549Y-100456867D01*
X54758270Y-100440420D01*
X54690568Y-100429697D01*
X54666987Y-100425962D01*
X54666985Y-100425962D01*
X54664069Y-100425500D01*
X54305931Y-100425500D01*
X54303015Y-100425962D01*
X54303013Y-100425962D01*
X54279432Y-100429697D01*
X54211730Y-100440420D01*
X54179451Y-100456867D01*
X54110950Y-100491770D01*
X54098271Y-100498230D01*
X54053174Y-100543327D01*
X54006554Y-100565067D01*
X53956867Y-100551753D01*
X53946826Y-100543327D01*
X53901729Y-100498230D01*
X53889051Y-100491770D01*
X53820549Y-100456867D01*
X53788270Y-100440420D01*
X53720568Y-100429697D01*
X53696987Y-100425962D01*
X53696985Y-100425962D01*
X53694069Y-100425500D01*
X53335931Y-100425500D01*
X53333015Y-100425962D01*
X53333013Y-100425962D01*
X53309432Y-100429697D01*
X53241730Y-100440420D01*
X53209451Y-100456867D01*
X53140950Y-100491770D01*
X53128271Y-100498230D01*
X53068171Y-100558330D01*
X53021555Y-100580068D01*
X52971868Y-100566755D01*
X52961826Y-100558328D01*
X52956672Y-100553174D01*
X52934932Y-100506554D01*
X52948246Y-100456867D01*
X52956672Y-100446826D01*
X53001769Y-100401729D01*
X53004459Y-100396451D01*
X53056893Y-100293543D01*
X53059580Y-100288270D01*
X53074500Y-100194069D01*
X53074500Y-99835932D01*
X53059580Y-99741731D01*
X53001770Y-99628272D01*
X52926673Y-99553175D01*
X52904933Y-99506555D01*
X52918247Y-99456868D01*
X52926673Y-99446827D01*
X52997581Y-99375919D01*
X52997584Y-99375915D01*
X53001770Y-99371729D01*
X53059580Y-99258270D01*
X53074500Y-99164069D01*
X53074500Y-98805932D01*
X53059580Y-98711731D01*
X53001770Y-98598272D01*
X52977498Y-98574000D01*
X52956673Y-98553174D01*
X52934934Y-98506553D01*
X52948248Y-98456866D01*
X52956668Y-98446831D01*
X52961821Y-98441678D01*
X53008439Y-98419934D01*
X53058127Y-98433243D01*
X53068174Y-98441673D01*
X53128271Y-98501770D01*
X53133547Y-98504458D01*
X53133548Y-98504459D01*
X53181301Y-98528790D01*
X53241730Y-98559580D01*
X53252514Y-98561288D01*
X53333013Y-98574038D01*
X53333015Y-98574038D01*
X53335931Y-98574500D01*
X53694069Y-98574500D01*
X53696985Y-98574038D01*
X53696987Y-98574038D01*
X53777486Y-98561288D01*
X53788270Y-98559580D01*
X53848699Y-98528790D01*
X53896452Y-98504459D01*
X53896453Y-98504458D01*
X53901729Y-98501770D01*
X53947176Y-98456323D01*
X53993797Y-98434584D01*
X54043484Y-98447898D01*
X54053524Y-98456324D01*
X54094375Y-98497175D01*
X54103842Y-98504054D01*
X54206611Y-98556417D01*
X54217732Y-98560030D01*
X54303014Y-98573538D01*
X54308886Y-98574000D01*
X54344741Y-98574000D01*
X54354898Y-98570303D01*
X54358000Y-98564931D01*
X54358000Y-98136069D01*
X54612000Y-98136069D01*
X54612000Y-98560741D01*
X54615697Y-98570898D01*
X54621069Y-98574000D01*
X54661114Y-98574000D01*
X54666986Y-98573538D01*
X54752268Y-98560030D01*
X54763389Y-98556417D01*
X54866158Y-98504054D01*
X54875625Y-98497175D01*
X54957175Y-98415625D01*
X54964054Y-98406158D01*
X55016417Y-98303389D01*
X55020030Y-98292268D01*
X55033538Y-98206986D01*
X55034000Y-98201114D01*
X55034000Y-98140259D01*
X55030303Y-98130102D01*
X55024931Y-98127000D01*
X54625259Y-98127000D01*
X54615102Y-98130697D01*
X54612000Y-98136069D01*
X54358000Y-98136069D01*
X54358000Y-97439259D01*
X54356475Y-97435069D01*
X54612000Y-97435069D01*
X54612000Y-97859741D01*
X54615697Y-97869898D01*
X54621069Y-97873000D01*
X55020741Y-97873000D01*
X55030898Y-97869303D01*
X55034000Y-97863931D01*
X55034000Y-97798886D01*
X55033538Y-97793014D01*
X55020030Y-97707732D01*
X55016417Y-97696611D01*
X54964054Y-97593842D01*
X54957175Y-97584375D01*
X54875625Y-97502825D01*
X54866158Y-97495946D01*
X54763389Y-97443583D01*
X54752268Y-97439970D01*
X54666986Y-97426462D01*
X54661114Y-97426000D01*
X54625259Y-97426000D01*
X54615102Y-97429697D01*
X54612000Y-97435069D01*
X54356475Y-97435069D01*
X54354303Y-97429102D01*
X54348931Y-97426000D01*
X54308886Y-97426000D01*
X54303014Y-97426462D01*
X54217732Y-97439970D01*
X54206611Y-97443583D01*
X54103842Y-97495946D01*
X54094379Y-97502822D01*
X54053525Y-97543677D01*
X54006905Y-97565417D01*
X53957218Y-97552104D01*
X53947176Y-97543677D01*
X53901729Y-97498230D01*
X53788270Y-97440420D01*
X53720568Y-97429697D01*
X53696987Y-97425962D01*
X53696985Y-97425962D01*
X53694069Y-97425500D01*
X53335931Y-97425500D01*
X53333015Y-97425962D01*
X53333013Y-97425962D01*
X53309432Y-97429697D01*
X53241730Y-97440420D01*
X53128271Y-97498230D01*
X53053174Y-97573327D01*
X53006554Y-97595067D01*
X52956867Y-97581753D01*
X52946829Y-97573330D01*
X52911729Y-97538230D01*
X52911152Y-97537936D01*
X52883735Y-97497292D01*
X52881500Y-97479096D01*
X52881500Y-96508430D01*
X52899093Y-96460092D01*
X52914915Y-96445908D01*
X52933494Y-96433494D01*
X52989747Y-96349306D01*
X52997460Y-96310530D01*
X53024145Y-96266553D01*
X53071215Y-96250000D01*
X53829285Y-96250000D01*
X53877623Y-96267593D01*
G37*
%TD.AperFunction*%
%TA.AperFunction,Conductor*%
G36*
X51977123Y-96267593D02*
G01*
X52002540Y-96310530D01*
X52010253Y-96349306D01*
X52066506Y-96433494D01*
X52085081Y-96445906D01*
X52115496Y-96487387D01*
X52118500Y-96508430D01*
X52118501Y-97479096D01*
X52100908Y-97527434D01*
X52090602Y-97537043D01*
X52088272Y-97538230D01*
X51998230Y-97628271D01*
X51940420Y-97741730D01*
X51925500Y-97835931D01*
X51925500Y-98194068D01*
X51940420Y-98288269D01*
X51998230Y-98401728D01*
X52002413Y-98405911D01*
X52043327Y-98446826D01*
X52065066Y-98493447D01*
X52051752Y-98543134D01*
X52043326Y-98553174D01*
X52002419Y-98594081D01*
X52002416Y-98594085D01*
X51998230Y-98598271D01*
X51940420Y-98711730D01*
X51925500Y-98805931D01*
X51925500Y-99164068D01*
X51940420Y-99258269D01*
X51998230Y-99371728D01*
X52002413Y-99375911D01*
X52073328Y-99446827D01*
X52095067Y-99493447D01*
X52081753Y-99543134D01*
X52073327Y-99553175D01*
X51998231Y-99628271D01*
X51995543Y-99633547D01*
X51995542Y-99633548D01*
X51971614Y-99680509D01*
X51940420Y-99741730D01*
X51939494Y-99747577D01*
X51927673Y-99822214D01*
X51925500Y-99835931D01*
X51925500Y-100194068D01*
X51925962Y-100196984D01*
X51925962Y-100196986D01*
X51935274Y-100255778D01*
X51940420Y-100288269D01*
X51998230Y-100401728D01*
X52043328Y-100446826D01*
X52065068Y-100493446D01*
X52051754Y-100543133D01*
X52043328Y-100553174D01*
X51998231Y-100598271D01*
X51940420Y-100711730D01*
X51939494Y-100717577D01*
X51927098Y-100795844D01*
X51925500Y-100805931D01*
X51925500Y-101164068D01*
X51925962Y-101166984D01*
X51925962Y-101166986D01*
X51932298Y-101206986D01*
X51940420Y-101258269D01*
X51998230Y-101371728D01*
X52073328Y-101446826D01*
X52095068Y-101493446D01*
X52081754Y-101543133D01*
X52073338Y-101553163D01*
X52038230Y-101588271D01*
X52035542Y-101593547D01*
X52035541Y-101593548D01*
X52019006Y-101626000D01*
X51980420Y-101701730D01*
X51979494Y-101707577D01*
X51967208Y-101785150D01*
X51965500Y-101795931D01*
X51965500Y-102204069D01*
X51965962Y-102206985D01*
X51965962Y-102206987D01*
X51973060Y-102251800D01*
X51980420Y-102298270D01*
X51983107Y-102303543D01*
X52031758Y-102399026D01*
X52038230Y-102411729D01*
X52096475Y-102469974D01*
X52118215Y-102516594D01*
X52118501Y-102523147D01*
X52118500Y-103592539D01*
X52119481Y-103598432D01*
X52120500Y-103610768D01*
X52120500Y-103612300D01*
X52102907Y-103660638D01*
X52058358Y-103686358D01*
X52045299Y-103687500D01*
X51958136Y-103687499D01*
X51909799Y-103669905D01*
X51884079Y-103625356D01*
X51883856Y-103614253D01*
X51883015Y-103614279D01*
X51879535Y-103500442D01*
X51879500Y-103498144D01*
X51879500Y-103184144D01*
X51876143Y-103165104D01*
X51875001Y-103152047D01*
X51875001Y-102915280D01*
X51871304Y-102905123D01*
X51868053Y-102903246D01*
X51834017Y-102909247D01*
X51821847Y-102913677D01*
X51791843Y-102931000D01*
X51741185Y-102939933D01*
X51723546Y-102933513D01*
X51723500Y-102933640D01*
X51618712Y-102895500D01*
X51409145Y-102895500D01*
X51405921Y-102896068D01*
X51405915Y-102896069D01*
X51333846Y-102908777D01*
X51333845Y-102908778D01*
X51327371Y-102909919D01*
X51279661Y-102937465D01*
X51278637Y-102938056D01*
X51227979Y-102946989D01*
X51202195Y-102937323D01*
X49355694Y-101823480D01*
X49348360Y-101818441D01*
X49326162Y-101801171D01*
X49326158Y-101801169D01*
X49321252Y-101797352D01*
X49271256Y-101780155D01*
X49267999Y-101778949D01*
X49218905Y-101759462D01*
X49212693Y-101759164D01*
X49210415Y-101758671D01*
X49209272Y-101758352D01*
X49205715Y-101757610D01*
X49201237Y-101756070D01*
X49196517Y-101755692D01*
X49196516Y-101755692D01*
X49194132Y-101755501D01*
X49194123Y-101755501D01*
X49192515Y-101755372D01*
X49190902Y-101755382D01*
X49190892Y-101755382D01*
X49154806Y-101755614D01*
X49142715Y-101755692D01*
X49138637Y-101755607D01*
X49122883Y-101754851D01*
X49098348Y-101753672D01*
X49098346Y-101753672D01*
X49092136Y-101753374D01*
X49086166Y-101755103D01*
X49081714Y-101755626D01*
X49073425Y-101756137D01*
X47196505Y-101768194D01*
X47180194Y-101766511D01*
X47174282Y-101765238D01*
X47174281Y-101765238D01*
X47168206Y-101763930D01*
X47162037Y-101764660D01*
X47162036Y-101764660D01*
X47132645Y-101768138D01*
X47124296Y-101768657D01*
X47122422Y-101768669D01*
X47117510Y-101768701D01*
X47097031Y-101772245D01*
X47093062Y-101772823D01*
X47048346Y-101778115D01*
X47048345Y-101778115D01*
X47042170Y-101778846D01*
X47036561Y-101781540D01*
X47032526Y-101782712D01*
X47028584Y-101784090D01*
X47022460Y-101785150D01*
X47017009Y-101788137D01*
X47017008Y-101788137D01*
X46977534Y-101809764D01*
X46973958Y-101811601D01*
X46927760Y-101833785D01*
X46921062Y-101839416D01*
X46920921Y-101839557D01*
X46917793Y-101842215D01*
X46916609Y-101843146D01*
X46911155Y-101846134D01*
X46890011Y-101869304D01*
X46879023Y-101881345D01*
X46876649Y-101883829D01*
X46468056Y-102292423D01*
X46063788Y-102696691D01*
X46051406Y-102706692D01*
X46039882Y-102714133D01*
X46036034Y-102719014D01*
X46036032Y-102719016D01*
X46018550Y-102741192D01*
X46012669Y-102747810D01*
X46008998Y-102751481D01*
X46002399Y-102760715D01*
X45996066Y-102769577D01*
X45993939Y-102772410D01*
X45984507Y-102784375D01*
X45961308Y-102813802D01*
X45959250Y-102819662D01*
X45957972Y-102821987D01*
X45957810Y-102822245D01*
X45957686Y-102822540D01*
X45956525Y-102824910D01*
X45952913Y-102829964D01*
X45951133Y-102835916D01*
X45951132Y-102835918D01*
X45937816Y-102880447D01*
X45936730Y-102883790D01*
X45919256Y-102933549D01*
X45918501Y-102942267D01*
X45918501Y-102942627D01*
X45918218Y-102945974D01*
X45916548Y-102951559D01*
X45916792Y-102957770D01*
X45916792Y-102957771D01*
X45918443Y-102999786D01*
X45918501Y-103002739D01*
X45918500Y-104338641D01*
X45917384Y-104346830D01*
X45917997Y-104346895D01*
X45917339Y-104353074D01*
X45915674Y-104359064D01*
X45916039Y-104365267D01*
X45916039Y-104365270D01*
X45918370Y-104404844D01*
X45918500Y-104409265D01*
X45918500Y-104430039D01*
X45919941Y-104438698D01*
X45920829Y-104446602D01*
X45923135Y-104485759D01*
X45925806Y-104494092D01*
X45926430Y-104495583D01*
X45926431Y-104495585D01*
X45927997Y-104499325D01*
X45932811Y-104516020D01*
X45934338Y-104525193D01*
X45937290Y-104530664D01*
X45952632Y-104559098D01*
X45955816Y-104565763D01*
X47624521Y-108551027D01*
X47627370Y-108559091D01*
X47628117Y-108561662D01*
X47628847Y-108567830D01*
X47631535Y-108573427D01*
X47631537Y-108573435D01*
X47649184Y-108610184D01*
X47650760Y-108613692D01*
X47659705Y-108635054D01*
X47661355Y-108637678D01*
X47661356Y-108637679D01*
X47663435Y-108640984D01*
X47667570Y-108648471D01*
X47683785Y-108682239D01*
X47689416Y-108688937D01*
X47694706Y-108694227D01*
X47705184Y-108707359D01*
X47711065Y-108716708D01*
X47715897Y-108720611D01*
X47739817Y-108739933D01*
X47745737Y-108745258D01*
X48435250Y-109434771D01*
X48440441Y-109440526D01*
X48454073Y-109457304D01*
X48464113Y-109469662D01*
X48469383Y-109472956D01*
X48472931Y-109475174D01*
X48486247Y-109485768D01*
X48961112Y-109960634D01*
X48982852Y-110007254D01*
X48977687Y-110041917D01*
X48936190Y-110144885D01*
X48895795Y-110351732D01*
X48895243Y-110562485D01*
X48934554Y-110769541D01*
X49012309Y-110965427D01*
X49014234Y-110968442D01*
X49014234Y-110968443D01*
X49073380Y-111061105D01*
X49125702Y-111143076D01*
X49270642Y-111296079D01*
X49441899Y-111418913D01*
X49633294Y-111507147D01*
X49738052Y-111532975D01*
X49834448Y-111556742D01*
X49834451Y-111556742D01*
X49837921Y-111557598D01*
X49982475Y-111565047D01*
X50044823Y-111568260D01*
X50044824Y-111568260D01*
X50048396Y-111568444D01*
X50132198Y-111556741D01*
X50253582Y-111539790D01*
X50253586Y-111539789D01*
X50257124Y-111539295D01*
X50423497Y-111482495D01*
X50474926Y-111483528D01*
X50500965Y-111500486D01*
X50763106Y-111762627D01*
X50784844Y-111809246D01*
X50771530Y-111858933D01*
X50729393Y-111888438D01*
X50709930Y-111891000D01*
X50140259Y-111891000D01*
X50130102Y-111894697D01*
X50127000Y-111900069D01*
X50126999Y-112872998D01*
X50127000Y-112873004D01*
X50126999Y-114095741D01*
X50130696Y-114105898D01*
X50136068Y-114109000D01*
X50846304Y-114109000D01*
X50853625Y-114108279D01*
X50941852Y-114090730D01*
X50955272Y-114085171D01*
X51026987Y-114037253D01*
X51037253Y-114026987D01*
X51085171Y-113955272D01*
X51090730Y-113941851D01*
X51093161Y-113929629D01*
X51119846Y-113885652D01*
X51168556Y-113869117D01*
X51220090Y-113891125D01*
X51616708Y-114287744D01*
X51935827Y-114606863D01*
X51957567Y-114653483D01*
X51944253Y-114703170D01*
X51902116Y-114732675D01*
X51882627Y-114735237D01*
X47608378Y-114733744D01*
X42058657Y-114731806D01*
X42042677Y-114730083D01*
X42029848Y-114727287D01*
X41919561Y-114725279D01*
X41915582Y-114725099D01*
X41887329Y-114723079D01*
X41851503Y-114720516D01*
X41846167Y-114719943D01*
X41659028Y-114693037D01*
X41653744Y-114692083D01*
X41606147Y-114681728D01*
X41600947Y-114680401D01*
X41419533Y-114627134D01*
X41414440Y-114625439D01*
X41393550Y-114617648D01*
X41368768Y-114608404D01*
X41363848Y-114606366D01*
X41248749Y-114553802D01*
X41191862Y-114527822D01*
X41187064Y-114525420D01*
X41144283Y-114502061D01*
X41139676Y-114499328D01*
X41047514Y-114440099D01*
X40980646Y-114397125D01*
X40976238Y-114394065D01*
X40937207Y-114364848D01*
X40933038Y-114361488D01*
X40790158Y-114237684D01*
X40786229Y-114234025D01*
X40751761Y-114199557D01*
X40748103Y-114195629D01*
X40673038Y-114109000D01*
X40624309Y-114052764D01*
X40620958Y-114048606D01*
X40591709Y-114009533D01*
X40588665Y-114005148D01*
X40486452Y-113846099D01*
X40483722Y-113841498D01*
X40479343Y-113833477D01*
X40475954Y-113827272D01*
X40460365Y-113798721D01*
X40457963Y-113793922D01*
X40397900Y-113662403D01*
X40379423Y-113621944D01*
X40377378Y-113617009D01*
X40360355Y-113571368D01*
X40358660Y-113566277D01*
X40305384Y-113384841D01*
X40304057Y-113379640D01*
X40293699Y-113332022D01*
X40292752Y-113326781D01*
X40265843Y-113139619D01*
X40265462Y-113136068D01*
X48891000Y-113136068D01*
X48891000Y-113846304D01*
X48891721Y-113853625D01*
X48909270Y-113941852D01*
X48914829Y-113955272D01*
X48962747Y-114026987D01*
X48973013Y-114037253D01*
X49044728Y-114085171D01*
X49058148Y-114090730D01*
X49146375Y-114108279D01*
X49153696Y-114109000D01*
X49859741Y-114109000D01*
X49869898Y-114105303D01*
X49873000Y-114099931D01*
X49873001Y-113140259D01*
X49869304Y-113130102D01*
X49863932Y-113127000D01*
X48904259Y-113126999D01*
X48894102Y-113130696D01*
X48891000Y-113136068D01*
X40265462Y-113136068D01*
X40265270Y-113134282D01*
X40260687Y-113070209D01*
X40260507Y-113066213D01*
X40258566Y-112959625D01*
X40258499Y-112955938D01*
X40255724Y-112943204D01*
X40254000Y-112927192D01*
X40254000Y-112153696D01*
X48891000Y-112153696D01*
X48891000Y-112859741D01*
X48894697Y-112869898D01*
X48900069Y-112873000D01*
X49859741Y-112873001D01*
X49869898Y-112869304D01*
X49873000Y-112863932D01*
X49873001Y-111904259D01*
X49869304Y-111894102D01*
X49863932Y-111891000D01*
X49153696Y-111891000D01*
X49146375Y-111891721D01*
X49058148Y-111909270D01*
X49044728Y-111914829D01*
X48973013Y-111962747D01*
X48962747Y-111973013D01*
X48914829Y-112044728D01*
X48909270Y-112058148D01*
X48891721Y-112146375D01*
X48891000Y-112153696D01*
X40254000Y-112153696D01*
X40254000Y-108003696D01*
X40254362Y-107996325D01*
X40272489Y-107812280D01*
X40275365Y-107797822D01*
X40327971Y-107624403D01*
X40333612Y-107610783D01*
X40335641Y-107606987D01*
X40419044Y-107450953D01*
X40427223Y-107438712D01*
X40542202Y-107298609D01*
X40552609Y-107288202D01*
X40692712Y-107173223D01*
X40704953Y-107165044D01*
X40864787Y-107079610D01*
X40878403Y-107073971D01*
X41051822Y-107021365D01*
X41066279Y-107018489D01*
X41250324Y-107000362D01*
X41257696Y-107000000D01*
X45000000Y-107000000D01*
X45000000Y-99000000D01*
X41257696Y-99000000D01*
X41250325Y-98999638D01*
X41201748Y-98994854D01*
X41066279Y-98981511D01*
X41051822Y-98978635D01*
X40878403Y-98926029D01*
X40864787Y-98920390D01*
X40704953Y-98834956D01*
X40692712Y-98826777D01*
X40552609Y-98711798D01*
X40542202Y-98701391D01*
X40427223Y-98561288D01*
X40419044Y-98549047D01*
X40333610Y-98389213D01*
X40327971Y-98375597D01*
X40283890Y-98230281D01*
X40275365Y-98202177D01*
X40272489Y-98187720D01*
X40267815Y-98140259D01*
X40254362Y-98003675D01*
X40254000Y-97996304D01*
X40254000Y-97253696D01*
X40254362Y-97246325D01*
X40272489Y-97062280D01*
X40275365Y-97047822D01*
X40327971Y-96874403D01*
X40333612Y-96860783D01*
X40419044Y-96700953D01*
X40427223Y-96688712D01*
X40542202Y-96548609D01*
X40552609Y-96538202D01*
X40692712Y-96423223D01*
X40704953Y-96415044D01*
X40864787Y-96329610D01*
X40878403Y-96323971D01*
X41051822Y-96271365D01*
X41066279Y-96268489D01*
X41250324Y-96250362D01*
X41257696Y-96250000D01*
X51928785Y-96250000D01*
X51977123Y-96267593D01*
G37*
%TD.AperFunction*%
%TA.AperFunction,Conductor*%
G36*
X50660638Y-106397093D02*
G01*
X50686358Y-106441642D01*
X50687500Y-106454700D01*
X50687499Y-106865741D01*
X50691196Y-106875898D01*
X50696568Y-106879000D01*
X50937575Y-106879000D01*
X50944084Y-106878431D01*
X51015983Y-106865753D01*
X51028153Y-106861323D01*
X51044458Y-106851909D01*
X51095117Y-106842976D01*
X51139665Y-106868696D01*
X51157259Y-106917033D01*
X51152724Y-106942754D01*
X51122750Y-107025104D01*
X51122749Y-107025109D01*
X51120500Y-107031288D01*
X51120500Y-107321958D01*
X51110425Y-107359558D01*
X51097550Y-107381858D01*
X51094025Y-107387391D01*
X51074527Y-107415236D01*
X51074525Y-107415240D01*
X51070753Y-107420627D01*
X51069050Y-107426983D01*
X51066889Y-107431617D01*
X51064580Y-107437191D01*
X51062834Y-107441987D01*
X51059545Y-107447685D01*
X51058403Y-107454163D01*
X51052498Y-107487651D01*
X51051078Y-107494056D01*
X51040578Y-107533243D01*
X51041151Y-107539795D01*
X51041151Y-107539797D01*
X51044014Y-107572517D01*
X51044300Y-107579071D01*
X51044301Y-108818544D01*
X51044301Y-109783988D01*
X51026708Y-109832326D01*
X50982159Y-109858046D01*
X50931501Y-109849113D01*
X50909964Y-109830441D01*
X50863979Y-109771900D01*
X50803469Y-109694867D01*
X50800769Y-109692524D01*
X50800766Y-109692521D01*
X50646992Y-109559084D01*
X50644290Y-109556739D01*
X50461864Y-109451203D01*
X50262772Y-109382066D01*
X50259232Y-109381553D01*
X50259229Y-109381552D01*
X50057737Y-109352338D01*
X50054199Y-109351825D01*
X50050631Y-109351990D01*
X50050629Y-109351990D01*
X49987035Y-109354934D01*
X49843670Y-109361569D01*
X49638782Y-109410947D01*
X49584270Y-109435732D01*
X49532987Y-109439724D01*
X49499972Y-109420450D01*
X49089286Y-109009765D01*
X49068578Y-108970608D01*
X49039208Y-108815800D01*
X48946082Y-108324949D01*
X48868431Y-107915662D01*
X48876706Y-107864892D01*
X48915679Y-107831319D01*
X48954077Y-107827371D01*
X48993014Y-107833538D01*
X48998886Y-107834000D01*
X49059741Y-107834000D01*
X49069898Y-107830303D01*
X49073000Y-107824931D01*
X49073000Y-107820740D01*
X49326999Y-107820740D01*
X49330696Y-107830899D01*
X49336068Y-107834000D01*
X49401113Y-107834000D01*
X49406985Y-107833538D01*
X49492267Y-107820030D01*
X49503388Y-107816417D01*
X49606157Y-107764054D01*
X49615624Y-107757175D01*
X49697174Y-107675625D01*
X49704053Y-107666158D01*
X49756417Y-107563388D01*
X49760030Y-107552268D01*
X49773538Y-107466986D01*
X49774000Y-107461114D01*
X49774000Y-107425259D01*
X49770303Y-107415102D01*
X49764931Y-107412000D01*
X49340260Y-107411999D01*
X49330101Y-107415696D01*
X49327000Y-107421068D01*
X49326999Y-107820740D01*
X49073000Y-107820740D01*
X49073001Y-107412000D01*
X49073000Y-107411996D01*
X49073001Y-107233200D01*
X49090595Y-107184862D01*
X49135143Y-107159142D01*
X49148201Y-107158000D01*
X49760741Y-107158001D01*
X49770898Y-107154304D01*
X49774000Y-107148932D01*
X49774000Y-107108887D01*
X49773538Y-107103015D01*
X49760030Y-107017733D01*
X49756417Y-107006612D01*
X49704054Y-106903843D01*
X49697175Y-106894376D01*
X49656323Y-106853524D01*
X49634583Y-106806904D01*
X49647897Y-106757217D01*
X49656322Y-106747176D01*
X49701769Y-106701729D01*
X49706705Y-106692043D01*
X49758554Y-106590283D01*
X49796175Y-106555201D01*
X49847545Y-106552509D01*
X49888626Y-106583466D01*
X49899615Y-106611364D01*
X49909245Y-106665977D01*
X49913678Y-106678155D01*
X49962926Y-106763454D01*
X49971260Y-106773386D01*
X50046710Y-106836697D01*
X50057931Y-106843176D01*
X50150171Y-106876750D01*
X50162933Y-106879000D01*
X50424241Y-106879000D01*
X50434398Y-106875303D01*
X50437500Y-106869931D01*
X50437501Y-106456700D01*
X50455095Y-106408362D01*
X50499643Y-106382642D01*
X50512701Y-106381500D01*
X50592540Y-106381500D01*
X50598433Y-106380519D01*
X50610769Y-106379500D01*
X50612300Y-106379500D01*
X50660638Y-106397093D01*
G37*
%TD.AperFunction*%
%TA.AperFunction,Conductor*%
G36*
X47900160Y-102544281D02*
G01*
X47926165Y-102588663D01*
X47917558Y-102639378D01*
X47886333Y-102669201D01*
X47833842Y-102695946D01*
X47824375Y-102702825D01*
X47742825Y-102784375D01*
X47735946Y-102793842D01*
X47683583Y-102896611D01*
X47679970Y-102907732D01*
X47666462Y-102993014D01*
X47666000Y-102998886D01*
X47666000Y-103059741D01*
X47669697Y-103069898D01*
X47675069Y-103073000D01*
X48266800Y-103073000D01*
X48315138Y-103090593D01*
X48340858Y-103135142D01*
X48342000Y-103148200D01*
X48342000Y-103251800D01*
X48324407Y-103300138D01*
X48279858Y-103325858D01*
X48266800Y-103327000D01*
X47679259Y-103327000D01*
X47669102Y-103330697D01*
X47666000Y-103336069D01*
X47666000Y-103401114D01*
X47666462Y-103406986D01*
X47679970Y-103492268D01*
X47683583Y-103503389D01*
X47735946Y-103606158D01*
X47742825Y-103615625D01*
X47824375Y-103697175D01*
X47833842Y-103704054D01*
X47872589Y-103723796D01*
X47907671Y-103761417D01*
X47910363Y-103812786D01*
X47879406Y-103853868D01*
X47838449Y-103866000D01*
X47798887Y-103866000D01*
X47793015Y-103866462D01*
X47707733Y-103879970D01*
X47696612Y-103883583D01*
X47593843Y-103935946D01*
X47584376Y-103942825D01*
X47502826Y-104024375D01*
X47495947Y-104033842D01*
X47443583Y-104136612D01*
X47439970Y-104147732D01*
X47426462Y-104233014D01*
X47426000Y-104238886D01*
X47426000Y-104274741D01*
X47429697Y-104284898D01*
X47435069Y-104288000D01*
X47872998Y-104288001D01*
X47873004Y-104288000D01*
X48560741Y-104288001D01*
X48573380Y-104283401D01*
X48624820Y-104283401D01*
X48634682Y-104288000D01*
X49251800Y-104288001D01*
X49300138Y-104305595D01*
X49325858Y-104350143D01*
X49327000Y-104363202D01*
X49326999Y-104466801D01*
X49309405Y-104515138D01*
X49264857Y-104540858D01*
X49251799Y-104542000D01*
X48639259Y-104541999D01*
X48626620Y-104546599D01*
X48575180Y-104546599D01*
X48565318Y-104542000D01*
X48127002Y-104541999D01*
X48126996Y-104542000D01*
X47439259Y-104541999D01*
X47429102Y-104545696D01*
X47426000Y-104551068D01*
X47426000Y-104591113D01*
X47426462Y-104596985D01*
X47439970Y-104682267D01*
X47443583Y-104693388D01*
X47495946Y-104796157D01*
X47502825Y-104805624D01*
X47543678Y-104846477D01*
X47565418Y-104893097D01*
X47552104Y-104942784D01*
X47543688Y-104952814D01*
X47498231Y-104998271D01*
X47495543Y-105003547D01*
X47495542Y-105003548D01*
X47494059Y-105006458D01*
X47440420Y-105111730D01*
X47425500Y-105205931D01*
X47425500Y-105564068D01*
X47425962Y-105566984D01*
X47425962Y-105566986D01*
X47432074Y-105605574D01*
X47440420Y-105658269D01*
X47498230Y-105771728D01*
X47588271Y-105861769D01*
X47593549Y-105864458D01*
X47593550Y-105864459D01*
X47681471Y-105909258D01*
X47716552Y-105946878D01*
X47721211Y-105962241D01*
X47833709Y-106555201D01*
X47880449Y-106801559D01*
X47872174Y-106852329D01*
X47833201Y-106885902D01*
X47781765Y-106886568D01*
X47741935Y-106854017D01*
X47737202Y-106844620D01*
X46687335Y-104337291D01*
X46681500Y-104308247D01*
X46681500Y-103189169D01*
X46699093Y-103140831D01*
X46703526Y-103135995D01*
X47287211Y-102552311D01*
X47333831Y-102530571D01*
X47339902Y-102530287D01*
X47733430Y-102527759D01*
X47851710Y-102526999D01*
X47900160Y-102544281D01*
G37*
%TD.AperFunction*%
%TA.AperFunction,Conductor*%
G36*
X55352840Y-105288874D02*
G01*
X55386242Y-105327994D01*
X55391000Y-105354319D01*
X55391000Y-105664998D01*
X55373407Y-105713336D01*
X55328858Y-105739056D01*
X55278200Y-105730123D01*
X55264366Y-105718348D01*
X55263962Y-105718807D01*
X55259297Y-105714701D01*
X55255369Y-105709883D01*
X55222977Y-105689717D01*
X55216179Y-105684942D01*
X55186198Y-105661307D01*
X55173690Y-105656915D01*
X55158871Y-105649805D01*
X55147627Y-105642805D01*
X55126350Y-105637891D01*
X55115832Y-105631444D01*
X55085062Y-105623198D01*
X55075590Y-105621583D01*
X55075539Y-105621818D01*
X55070913Y-105620822D01*
X55066451Y-105619255D01*
X55061742Y-105618847D01*
X55061741Y-105618847D01*
X55059342Y-105618639D01*
X55059334Y-105618639D01*
X55057733Y-105618500D01*
X55050963Y-105618500D01*
X55034040Y-105616571D01*
X55030020Y-105615642D01*
X55030017Y-105615642D01*
X55023965Y-105614244D01*
X55017785Y-105614882D01*
X55017783Y-105614882D01*
X54986601Y-105618102D01*
X54978877Y-105618500D01*
X54407460Y-105618500D01*
X54401567Y-105619481D01*
X54389231Y-105620500D01*
X54387700Y-105620500D01*
X54339362Y-105602907D01*
X54313642Y-105558358D01*
X54312500Y-105545299D01*
X54312501Y-105454699D01*
X54330095Y-105406362D01*
X54374643Y-105380642D01*
X54387701Y-105379500D01*
X54815856Y-105379500D01*
X54827155Y-105377508D01*
X54834896Y-105376143D01*
X54847953Y-105375001D01*
X55084720Y-105375001D01*
X55094877Y-105371304D01*
X55106912Y-105350459D01*
X55107754Y-105350945D01*
X55114430Y-105332604D01*
X55158344Y-105306999D01*
X55302109Y-105280376D01*
X55352840Y-105288874D01*
G37*
%TD.AperFunction*%
%TA.AperFunction,Conductor*%
G36*
X49883061Y-104626542D02*
G01*
X49903418Y-104661097D01*
X49906525Y-104659966D01*
X49908777Y-104666154D01*
X49909919Y-104672629D01*
X49915484Y-104682267D01*
X49931004Y-104709149D01*
X49939937Y-104759807D01*
X49933806Y-104776653D01*
X49934073Y-104776750D01*
X49902847Y-104862541D01*
X49902847Y-104873349D01*
X49903077Y-104873624D01*
X49908213Y-104875000D01*
X50130769Y-104875000D01*
X50143828Y-104876143D01*
X50150107Y-104877250D01*
X50156288Y-104879500D01*
X50489841Y-104879500D01*
X50501892Y-104881263D01*
X50501939Y-104880892D01*
X50508102Y-104881671D01*
X50514059Y-104883452D01*
X50520271Y-104883208D01*
X50609348Y-104879708D01*
X50658339Y-104895390D01*
X50685788Y-104938894D01*
X50687500Y-104954851D01*
X50687499Y-105043301D01*
X50669905Y-105091638D01*
X50625357Y-105117358D01*
X50612299Y-105118500D01*
X49809112Y-105118500D01*
X49760774Y-105100907D01*
X49742108Y-105077440D01*
X49704459Y-105003549D01*
X49704458Y-105003548D01*
X49701770Y-104998272D01*
X49656323Y-104952825D01*
X49634583Y-104906205D01*
X49647897Y-104856518D01*
X49656322Y-104846477D01*
X49697177Y-104805621D01*
X49704053Y-104796158D01*
X49756417Y-104693388D01*
X49760030Y-104682268D01*
X49761463Y-104673221D01*
X49786401Y-104628230D01*
X49834424Y-104609795D01*
X49883061Y-104626542D01*
G37*
%TD.AperFunction*%
%TD*%
M02*
