M48
; DRILL file {KiCad (5.99.0-7653-g7b9c21e290)} date 01/21/21 05:12:58
; FORMAT={2:4/ absolute / inch / keep zeros}
; #@! TF.CreationDate,2021-01-21T05:12:58-07:00
; #@! TF.GenerationSoftware,Kicad,Pcbnew,(5.99.0-7653-g7b9c21e290)
FMAT,2
INCH
T1C0.0118
T2C0.0130
T3C0.0394
T4C0.0709
T5C0.0866
%
G90
G05
T1
X021496Y-037795
T2
X018543Y-041063
X018661Y-040630
X018898Y-044291
X019094Y-044094
X019094Y-044488
X019291Y-043898
X019370Y-042559
X019646Y-042087
X019724Y-042717
X019843Y-042362
X020276Y-038189
X020276Y-038583
X020276Y-038976
X020276Y-039370
X020276Y-039764
X020276Y-040157
X021063Y-038976
X021063Y-039370
X021457Y-038976
X021457Y-039370
X021457Y-040748
X021496Y-038150
X021850Y-038583
X021850Y-039370
X022165Y-040157
X022244Y-039370
X022402Y-042126
X022638Y-039370
X022638Y-039764
X023307Y-040236
T3
X019685Y-043488
X019685Y-044488
X020685Y-043488
X020685Y-044488
X021685Y-043488
X021685Y-044488
X022685Y-043488
X022685Y-044488
T4
X016929Y-041201
X032165Y-041654
T5
X016929Y-039823
X032165Y-043031
T0
M30
