%TF.GenerationSoftware,KiCad,Pcbnew,(5.99.0-7653-g7b9c21e290)*%
%TF.CreationDate,2021-01-21T05:12:34-07:00*%
%TF.ProjectId,buttonNRF24Board,62757474-6f6e-44e5-9246-3234426f6172,rev?*%
%TF.SameCoordinates,Original*%
%TF.FileFunction,Paste,Top*%
%TF.FilePolarity,Positive*%
%FSLAX46Y46*%
G04 Gerber Fmt 4.6, Leading zero omitted, Abs format (unit mm)*
G04 Created by KiCad (PCBNEW (5.99.0-7653-g7b9c21e290)) date 2021-01-21 05:12:34*
%MOMM*%
%LPD*%
G01*
G04 APERTURE LIST*
G04 Aperture macros list*
%AMRoundRect*
0 Rectangle with rounded corners*
0 $1 Rounding radius*
0 $2 $3 $4 $5 $6 $7 $8 $9 X,Y pos of 4 corners*
0 Add a 4 corners polygon primitive as box body*
4,1,4,$2,$3,$4,$5,$6,$7,$8,$9,$2,$3,0*
0 Add four circle primitives for the rounded corners*
1,1,$1+$1,$2,$3,0*
1,1,$1+$1,$4,$5,0*
1,1,$1+$1,$6,$7,0*
1,1,$1+$1,$8,$9,0*
0 Add four rect primitives between the rounded corners*
20,1,$1+$1,$2,$3,$4,$5,0*
20,1,$1+$1,$4,$5,$6,$7,0*
20,1,$1+$1,$6,$7,$8,$9,0*
20,1,$1+$1,$8,$9,$2,$3,0*%
G04 Aperture macros list end*
%ADD10RoundRect,0.147500X0.147500X0.172500X-0.147500X0.172500X-0.147500X-0.172500X0.147500X-0.172500X0*%
%ADD11RoundRect,0.147500X-0.172500X0.147500X-0.172500X-0.147500X0.172500X-0.147500X0.172500X0.147500X0*%
%ADD12RoundRect,0.147500X-0.147500X-0.172500X0.147500X-0.172500X0.147500X0.172500X-0.147500X0.172500X0*%
%ADD13RoundRect,0.147500X0.172500X-0.147500X0.172500X0.147500X-0.172500X0.147500X-0.172500X-0.147500X0*%
%ADD14RoundRect,0.250000X0.255000X-0.255000X0.255000X0.255000X-0.255000X0.255000X-0.255000X-0.255000X0*%
%ADD15RoundRect,0.062500X0.062500X-0.350000X0.062500X0.350000X-0.062500X0.350000X-0.062500X-0.350000X0*%
%ADD16RoundRect,0.062500X0.350000X-0.062500X0.350000X0.062500X-0.350000X0.062500X-0.350000X-0.062500X0*%
%ADD17R,1.200000X1.400000*%
G04 APERTURE END LIST*
D10*
%TO.C,C3*%
X55485000Y-102000000D03*
X54515000Y-102000000D03*
%TD*%
D11*
%TO.C,C9*%
X48000000Y-104415000D03*
X48000000Y-105385000D03*
%TD*%
D12*
%TO.C,L1*%
X52515000Y-102000000D03*
X53485000Y-102000000D03*
%TD*%
D13*
%TO.C,R1*%
X59400000Y-105285000D03*
X59400000Y-104315000D03*
%TD*%
D12*
%TO.C,C1*%
X57215000Y-102200000D03*
X58185000Y-102200000D03*
%TD*%
D10*
%TO.C,C2*%
X58485000Y-107400000D03*
X57515000Y-107400000D03*
%TD*%
D14*
%TO.C,U1*%
X51875000Y-106125000D03*
X51875000Y-104875000D03*
X53125000Y-106125000D03*
X53125000Y-104875000D03*
D15*
X51500000Y-107437500D03*
X52000000Y-107437500D03*
X52500000Y-107437500D03*
X53000000Y-107437500D03*
X53500000Y-107437500D03*
D16*
X54437500Y-106500000D03*
X54437500Y-106000000D03*
X54437500Y-105500000D03*
X54437500Y-105000000D03*
X54437500Y-104500000D03*
D15*
X53500000Y-103562500D03*
X53000000Y-103562500D03*
X52500000Y-103562500D03*
X52000000Y-103562500D03*
X51500000Y-103562500D03*
D16*
X50562500Y-104500000D03*
X50562500Y-105000000D03*
X50562500Y-105500000D03*
X50562500Y-106000000D03*
X50562500Y-106500000D03*
%TD*%
D17*
%TO.C,X1*%
X57950000Y-105900000D03*
X57950000Y-103700000D03*
X56250000Y-103700000D03*
X56250000Y-105900000D03*
%TD*%
D11*
%TO.C,L3*%
X52500000Y-100015000D03*
X52500000Y-100985000D03*
%TD*%
%TO.C,C8*%
X49200000Y-104415000D03*
X49200000Y-105385000D03*
%TD*%
D10*
%TO.C,C4*%
X56485000Y-101000000D03*
X55515000Y-101000000D03*
%TD*%
D12*
%TO.C,R2*%
X48215000Y-103200000D03*
X49185000Y-103200000D03*
%TD*%
%TO.C,C6*%
X53515000Y-98000000D03*
X54485000Y-98000000D03*
%TD*%
%TO.C,L2*%
X53515000Y-101000000D03*
X54485000Y-101000000D03*
%TD*%
D11*
%TO.C,C7*%
X49200000Y-106315000D03*
X49200000Y-107285000D03*
%TD*%
D13*
%TO.C,C5*%
X52500000Y-98985000D03*
X52500000Y-98015000D03*
%TD*%
M02*
